<?xml version="1.0" encoding="UTF-8" standalone="no"?>
<!DOCTYPE svg PUBLIC "-//W3C//DTD SVG 1.1//EN"
 "http://www.w3.org/Graphics/SVG/1.1/DTD/svg11.dtd">
<!-- Generated by graphviz version 2.43.0 (0)
 -->
<!-- Title: %3 Pages: 1 -->
<svg width="8pt" height="8pt"
 viewBox="0.00 0.00 8.00 8.00" xmlns="http://www.w3.org/2000/svg" xmlns:xlink="http://www.w3.org/1999/xlink">
<g id="graph0" class="graph" transform="scale(1 1) rotate(0) translate(4 4)">
<title>%3</title>
<polygon fill="white" stroke="transparent" points="-4,4 -4,-4 4,-4 4,4 -4,4"/>
<!-- qrx -->
<g id="node1" class="node">
<title>qrx</title>
<ellipse fill="none" stroke="black" cx="0" cy="0" rx="27" ry="18"/>
<text text-anchor="middle" x="0" y="3.7" font-family="Times,serif" font-size="14.00">qrx</text>
</g>
<!-- ckt -->
<g id="node2" class="node">
<title>ckt</title>
<ellipse fill="none" stroke="black" cx="1" cy="0" rx="27" ry="18"/>
<text text-anchor="middle" x="1" y="3.7" font-family="Times,serif" font-size="14.00">ckt</text>
</g>
<!-- mmh -->
<g id="node4" class="node">
<title>mmh</title>
<ellipse fill="none" stroke="black" cx="9" cy="0" rx="34.5" ry="18"/>
<text text-anchor="middle" x="9" y="3.7" font-family="Times,serif" font-size="14.00">mmh</text>
</g>
<!-- dfl -->
<g id="node9" class="node">
<title>dfl</title>
<ellipse fill="none" stroke="black" cx="2" cy="0" rx="27" ry="18"/>
<text text-anchor="middle" x="2" y="3.7" font-family="Times,serif" font-size="14.00">dfl</text>
</g>
<!-- jck -->
<g id="node13" class="node">
<title>jck</title>
<ellipse fill="none" stroke="black" cx="19" cy="0" rx="27" ry="18"/>
<text text-anchor="middle" x="19" y="3.7" font-family="Times,serif" font-size="14.00">jck</text>
</g>
<!-- jgv -->
<g id="node15" class="node">
<title>jgv</title>
<ellipse fill="none" stroke="black" cx="23" cy="0" rx="27" ry="18"/>
<text text-anchor="middle" x="23" y="3.7" font-family="Times,serif" font-size="14.00">jgv</text>
</g>
<!-- hsp -->
<g id="node17" class="node">
<title>hsp</title>
<ellipse fill="none" stroke="black" cx="27" cy="0" rx="27.5" ry="18"/>
<text text-anchor="middle" x="27" y="3.7" font-family="Times,serif" font-size="14.00">hsp</text>
</g>
<!-- bpd -->
<g id="node1379" class="node">
<title>bpd</title>
<ellipse fill="none" stroke="black" cx="3" cy="0" rx="28.7" ry="18"/>
<text text-anchor="middle" x="3" y="3.7" font-family="Times,serif" font-size="14.00">bpd</text>
</g>
<!-- dtd -->
<g id="node168" class="node">
<title>dtd</title>
<ellipse fill="none" stroke="black" cx="24" cy="0" rx="27" ry="18"/>
<text text-anchor="middle" x="24" y="3.7" font-family="Times,serif" font-size="14.00">dtd</text>
</g>
<!-- mhc -->
<g id="node834" class="node">
<title>mhc</title>
<ellipse fill="none" stroke="black" cx="1" cy="0" rx="30.59" ry="18"/>
<text text-anchor="middle" x="1" y="3.7" font-family="Times,serif" font-size="14.00">mhc</text>
</g>
<!-- qkp -->
<g id="node1167" class="node">
<title>qkp</title>
<ellipse fill="none" stroke="black" cx="16" cy="0" rx="28" ry="18"/>
<text text-anchor="middle" x="16" y="3.7" font-family="Times,serif" font-size="14.00">qkp</text>
</g>
<!-- hbq -->
<g id="node89" class="node">
<title>hbq</title>
<ellipse fill="none" stroke="black" cx="31" cy="0" rx="28.7" ry="18"/>
<text text-anchor="middle" x="31" y="3.7" font-family="Times,serif" font-size="14.00">hbq</text>
</g>
<!-- jgl -->
<g id="node589" class="node">
<title>jgl</title>
<ellipse fill="none" stroke="black" cx="23" cy="0" rx="27" ry="18"/>
<text text-anchor="middle" x="23" y="3.7" font-family="Times,serif" font-size="14.00">jgl</text>
</g>
<!-- nms -->
<g id="node85" class="node">
<title>nms</title>
<ellipse fill="none" stroke="black" cx="14" cy="0" rx="30.59" ry="18"/>
<text text-anchor="middle" x="14" y="3.7" font-family="Times,serif" font-size="14.00">nms</text>
</g>
<!-- lnv -->
<g id="node86" class="node">
<title>lnv</title>
<ellipse fill="none" stroke="black" cx="16" cy="0" rx="27" ry="18"/>
<text text-anchor="middle" x="16" y="3.7" font-family="Times,serif" font-size="14.00">lnv</text>
</g>
<!-- jvb -->
<g id="node88" class="node">
<title>jvb</title>
<ellipse fill="none" stroke="black" cx="11" cy="0" rx="27" ry="18"/>
<text text-anchor="middle" x="11" y="3.7" font-family="Times,serif" font-size="14.00">jvb</text>
</g>
<!-- mjs -->
<g id="node93" class="node">
<title>mjs</title>
<ellipse fill="none" stroke="black" cx="16" cy="0" rx="27.5" ry="18"/>
<text text-anchor="middle" x="16" y="3.7" font-family="Times,serif" font-size="14.00">mjs</text>
</g>
<!-- vtg -->
<g id="node94" class="node">
<title>vtg</title>
<ellipse fill="none" stroke="black" cx="30" cy="0" rx="27" ry="18"/>
<text text-anchor="middle" x="30" y="3.7" font-family="Times,serif" font-size="14.00">vtg</text>
</g>
<!-- tdf -->
<g id="node97" class="node">
<title>tdf</title>
<ellipse fill="none" stroke="black" cx="25" cy="0" rx="27" ry="18"/>
<text text-anchor="middle" x="25" y="3.7" font-family="Times,serif" font-size="14.00">tdf</text>
</g>
<!-- fsp -->
<g id="node99" class="node">
<title>fsp</title>
<ellipse fill="none" stroke="black" cx="11" cy="0" rx="27" ry="18"/>
<text text-anchor="middle" x="11" y="3.7" font-family="Times,serif" font-size="14.00">fsp</text>
</g>
<!-- jrg -->
<g id="node101" class="node">
<title>jrg</title>
<ellipse fill="none" stroke="black" cx="31" cy="0" rx="27" ry="18"/>
<text text-anchor="middle" x="31" y="3.7" font-family="Times,serif" font-size="14.00">jrg</text>
</g>
<!-- pzn -->
<g id="node771" class="node">
<title>pzn</title>
<ellipse fill="none" stroke="black" cx="17" cy="0" rx="27.5" ry="18"/>
<text text-anchor="middle" x="17" y="3.7" font-family="Times,serif" font-size="14.00">pzn</text>
</g>
<!-- zgk -->
<g id="node321" class="node">
<title>zgk</title>
<ellipse fill="none" stroke="black" cx="23" cy="0" rx="27" ry="18"/>
<text text-anchor="middle" x="23" y="3.7" font-family="Times,serif" font-size="14.00">zgk</text>
</g>
<!-- fzv -->
<g id="node1423" class="node">
<title>fzv</title>
<ellipse fill="none" stroke="black" cx="18" cy="0" rx="27" ry="18"/>
<text text-anchor="middle" x="18" y="3.7" font-family="Times,serif" font-size="14.00">fzv</text>
</g>
<!-- mdx -->
<g id="node720" class="node">
<title>mdx</title>
<ellipse fill="none" stroke="black" cx="21" cy="0" rx="30.59" ry="18"/>
<text text-anchor="middle" x="21" y="3.7" font-family="Times,serif" font-size="14.00">mdx</text>
</g>
<!-- djv -->
<g id="node745" class="node">
<title>djv</title>
<ellipse fill="none" stroke="black" cx="10" cy="0" rx="27" ry="18"/>
<text text-anchor="middle" x="10" y="3.7" font-family="Times,serif" font-size="14.00">djv</text>
</g>
<!-- lft -->
<g id="node126" class="node">
<title>lft</title>
<ellipse fill="none" stroke="black" cx="15" cy="0" rx="27" ry="18"/>
<text text-anchor="middle" x="15" y="3.7" font-family="Times,serif" font-size="14.00">lft</text>
</g>
<!-- bjf -->
<g id="node131" class="node">
<title>bjf</title>
<ellipse fill="none" stroke="black" cx="21" cy="0" rx="27" ry="18"/>
<text text-anchor="middle" x="21" y="3.7" font-family="Times,serif" font-size="14.00">bjf</text>
</g>
<!-- lkm -->
<g id="node313" class="node">
<title>lkm</title>
<ellipse fill="none" stroke="black" cx="23" cy="0" rx="28" ry="18"/>
<text text-anchor="middle" x="23" y="3.7" font-family="Times,serif" font-size="14.00">lkm</text>
</g>
<!-- ngf -->
<g id="node551" class="node">
<title>ngf</title>
<ellipse fill="none" stroke="black" cx="20" cy="0" rx="27" ry="18"/>
<text text-anchor="middle" x="20" y="3.7" font-family="Times,serif" font-size="14.00">ngf</text>
</g>
<!-- ljs -->
<g id="node202" class="node">
<title>ljs</title>
<ellipse fill="none" stroke="black" cx="5" cy="0" rx="27" ry="18"/>
<text text-anchor="middle" x="5" y="3.7" font-family="Times,serif" font-size="14.00">ljs</text>
</g>
<!-- kns -->
<g id="node171" class="node">
<title>kns</title>
<ellipse fill="none" stroke="black" cx="9" cy="0" rx="27" ry="18"/>
<text text-anchor="middle" x="9" y="3.7" font-family="Times,serif" font-size="14.00">kns</text>
</g>
<!-- dzl -->
<g id="node174" class="node">
<title>dzl</title>
<ellipse fill="none" stroke="black" cx="21" cy="0" rx="27" ry="18"/>
<text text-anchor="middle" x="21" y="3.7" font-family="Times,serif" font-size="14.00">dzl</text>
</g>
<!-- nbc -->
<g id="node468" class="node">
<title>nbc</title>
<ellipse fill="none" stroke="black" cx="8" cy="0" rx="27.5" ry="18"/>
<text text-anchor="middle" x="8" y="3.7" font-family="Times,serif" font-size="14.00">nbc</text>
</g>
<!-- fdx -->
<g id="node188" class="node">
<title>fdx</title>
<ellipse fill="none" stroke="black" cx="29" cy="0" rx="27" ry="18"/>
<text text-anchor="middle" x="29" y="3.7" font-family="Times,serif" font-size="14.00">fdx</text>
</g>
<!-- clk -->
<g id="node195" class="node">
<title>clk</title>
<ellipse fill="none" stroke="black" cx="8" cy="0" rx="27" ry="18"/>
<text text-anchor="middle" x="8" y="3.7" font-family="Times,serif" font-size="14.00">clk</text>
</g>
<!-- pdq -->
<g id="node196" class="node">
<title>pdq</title>
<ellipse fill="none" stroke="black" cx="11" cy="0" rx="28.7" ry="18"/>
<text text-anchor="middle" x="11" y="3.7" font-family="Times,serif" font-size="14.00">pdq</text>
</g>
<!-- fvc -->
<g id="node198" class="node">
<title>fvc</title>
<ellipse fill="none" stroke="black" cx="3" cy="0" rx="27" ry="18"/>
<text text-anchor="middle" x="3" y="3.7" font-family="Times,serif" font-size="14.00">fvc</text>
</g>
<!-- tsp -->
<g id="node204" class="node">
<title>tsp</title>
<ellipse fill="none" stroke="black" cx="16" cy="0" rx="27" ry="18"/>
<text text-anchor="middle" x="16" y="3.7" font-family="Times,serif" font-size="14.00">tsp</text>
</g>
<!-- nnl -->
<g id="node209" class="node">
<title>nnl</title>
<ellipse fill="none" stroke="black" cx="4" cy="0" rx="27" ry="18"/>
<text text-anchor="middle" x="4" y="3.7" font-family="Times,serif" font-size="14.00">nnl</text>
</g>
<!-- spt -->
<g id="node1254" class="node">
<title>spt</title>
<ellipse fill="none" stroke="black" cx="6" cy="0" rx="27" ry="18"/>
<text text-anchor="middle" x="6" y="3.7" font-family="Times,serif" font-size="14.00">spt</text>
</g>
<!-- xzf -->
<g id="node765" class="node">
<title>xzf</title>
<ellipse fill="none" stroke="black" cx="5" cy="0" rx="27" ry="18"/>
<text text-anchor="middle" x="5" y="3.7" font-family="Times,serif" font-size="14.00">xzf</text>
</g>
<!-- brr -->
<g id="node736" class="node">
<title>brr</title>
<ellipse fill="none" stroke="black" cx="27" cy="0" rx="27" ry="18"/>
<text text-anchor="middle" x="27" y="3.7" font-family="Times,serif" font-size="14.00">brr</text>
</g>
<!-- rdk -->
<g id="node389" class="node">
<title>rdk</title>
<ellipse fill="none" stroke="black" cx="24" cy="0" rx="27" ry="18"/>
<text text-anchor="middle" x="24" y="3.7" font-family="Times,serif" font-size="14.00">rdk</text>
</g>
<!-- bqq -->
<g id="node398" class="node">
<title>bqq</title>
<ellipse fill="none" stroke="black" cx="3" cy="0" rx="28.7" ry="18"/>
<text text-anchor="middle" x="3" y="3.7" font-family="Times,serif" font-size="14.00">bqq</text>
</g>
<!-- zjl -->
<g id="node822" class="node">
<title>zjl</title>
<ellipse fill="none" stroke="black" cx="13" cy="0" rx="27" ry="18"/>
<text text-anchor="middle" x="13" y="3.7" font-family="Times,serif" font-size="14.00">zjl</text>
</g>
<!-- vmb -->
<g id="node320" class="node">
<title>vmb</title>
<ellipse fill="none" stroke="black" cx="17" cy="0" rx="30.59" ry="18"/>
<text text-anchor="middle" x="17" y="3.7" font-family="Times,serif" font-size="14.00">vmb</text>
</g>
<!-- qfj -->
<g id="node350" class="node">
<title>qfj</title>
<ellipse fill="none" stroke="black" cx="29" cy="0" rx="27" ry="18"/>
<text text-anchor="middle" x="29" y="3.7" font-family="Times,serif" font-size="14.00">qfj</text>
</g>
<!-- fsk -->
<g id="node724" class="node">
<title>fsk</title>
<ellipse fill="none" stroke="black" cx="11" cy="0" rx="27" ry="18"/>
<text text-anchor="middle" x="11" y="3.7" font-family="Times,serif" font-size="14.00">fsk</text>
</g>
<!-- tkb -->
<g id="node910" class="node">
<title>tkb</title>
<ellipse fill="none" stroke="black" cx="27" cy="0" rx="27" ry="18"/>
<text text-anchor="middle" x="27" y="3.7" font-family="Times,serif" font-size="14.00">tkb</text>
</g>
<!-- dpd -->
<g id="node807" class="node">
<title>dpd</title>
<ellipse fill="none" stroke="black" cx="14" cy="0" rx="28.7" ry="18"/>
<text text-anchor="middle" x="14" y="3.7" font-family="Times,serif" font-size="14.00">dpd</text>
</g>
<!-- rst -->
<g id="node483" class="node">
<title>rst</title>
<ellipse fill="none" stroke="black" cx="28" cy="0" rx="27" ry="18"/>
<text text-anchor="middle" x="28" y="3.7" font-family="Times,serif" font-size="14.00">rst</text>
</g>
<!-- ccl -->
<g id="node905" class="node">
<title>ccl</title>
<ellipse fill="none" stroke="black" cx="23" cy="0" rx="27" ry="18"/>
<text text-anchor="middle" x="23" y="3.7" font-family="Times,serif" font-size="14.00">ccl</text>
</g>
<!-- kdc -->
<g id="node1261" class="node">
<title>kdc</title>
<ellipse fill="none" stroke="black" cx="1" cy="0" rx="27" ry="18"/>
<text text-anchor="middle" x="1" y="3.7" font-family="Times,serif" font-size="14.00">kdc</text>
</g>
<!-- xlx -->
<g id="node387" class="node">
<title>xlx</title>
<ellipse fill="none" stroke="black" cx="12" cy="0" rx="27" ry="18"/>
<text text-anchor="middle" x="12" y="3.7" font-family="Times,serif" font-size="14.00">xlx</text>
</g>
<!-- gff -->
<g id="node463" class="node">
<title>gff</title>
<ellipse fill="none" stroke="black" cx="11" cy="0" rx="27" ry="18"/>
<text text-anchor="middle" x="11" y="3.7" font-family="Times,serif" font-size="14.00">gff</text>
</g>
<!-- mdg -->
<g id="node1078" class="node">
<title>mdg</title>
<ellipse fill="none" stroke="black" cx="16" cy="0" rx="31.4" ry="18"/>
<text text-anchor="middle" x="16" y="3.7" font-family="Times,serif" font-size="14.00">mdg</text>
</g>
<!-- qkz -->
<g id="node1255" class="node">
<title>qkz</title>
<ellipse fill="none" stroke="black" cx="4" cy="0" rx="27" ry="18"/>
<text text-anchor="middle" x="4" y="3.7" font-family="Times,serif" font-size="14.00">qkz</text>
</g>
<!-- lgb -->
<g id="node412" class="node">
<title>lgb</title>
<ellipse fill="none" stroke="black" cx="6" cy="0" rx="27" ry="18"/>
<text text-anchor="middle" x="6" y="3.7" font-family="Times,serif" font-size="14.00">lgb</text>
</g>
<!-- tpr -->
<g id="node415" class="node">
<title>tpr</title>
<ellipse fill="none" stroke="black" cx="31" cy="0" rx="27" ry="18"/>
<text text-anchor="middle" x="31" y="3.7" font-family="Times,serif" font-size="14.00">tpr</text>
</g>
<!-- vtc -->
<g id="node820" class="node">
<title>vtc</title>
<ellipse fill="none" stroke="black" cx="17" cy="0" rx="27" ry="18"/>
<text text-anchor="middle" x="17" y="3.7" font-family="Times,serif" font-size="14.00">vtc</text>
</g>
<!-- nvx -->
<g id="node543" class="node">
<title>nvx</title>
<ellipse fill="none" stroke="black" cx="13" cy="0" rx="27.5" ry="18"/>
<text text-anchor="middle" x="13" y="3.7" font-family="Times,serif" font-size="14.00">nvx</text>
</g>
<!-- stj -->
<g id="node909" class="node">
<title>stj</title>
<ellipse fill="none" stroke="black" cx="21" cy="0" rx="27" ry="18"/>
<text text-anchor="middle" x="21" y="3.7" font-family="Times,serif" font-size="14.00">stj</text>
</g>
<!-- lhl -->
<g id="node583" class="node">
<title>lhl</title>
<ellipse fill="none" stroke="black" cx="9" cy="0" rx="27" ry="18"/>
<text text-anchor="middle" x="9" y="3.7" font-family="Times,serif" font-size="14.00">lhl</text>
</g>
<!-- xgx -->
<g id="node1326" class="node">
<title>xgx</title>
<ellipse fill="none" stroke="black" cx="10" cy="0" rx="27.5" ry="18"/>
<text text-anchor="middle" x="10" y="3.7" font-family="Times,serif" font-size="14.00">xgx</text>
</g>
<!-- snn -->
<g id="node1338" class="node">
<title>snn</title>
<ellipse fill="none" stroke="black" cx="8" cy="0" rx="27.5" ry="18"/>
<text text-anchor="middle" x="8" y="3.7" font-family="Times,serif" font-size="14.00">snn</text>
</g>
<!-- cxm -->
<g id="node482" class="node">
<title>cxm</title>
<ellipse fill="none" stroke="black" cx="15" cy="0" rx="30" ry="18"/>
<text text-anchor="middle" x="15" y="3.7" font-family="Times,serif" font-size="14.00">cxm</text>
</g>
<!-- qld -->
<g id="node484" class="node">
<title>qld</title>
<ellipse fill="none" stroke="black" cx="17" cy="0" rx="27" ry="18"/>
<text text-anchor="middle" x="17" y="3.7" font-family="Times,serif" font-size="14.00">qld</text>
</g>
<!-- rlc -->
<g id="node490" class="node">
<title>rlc</title>
<ellipse fill="none" stroke="black" cx="18" cy="0" rx="27" ry="18"/>
<text text-anchor="middle" x="18" y="3.7" font-family="Times,serif" font-size="14.00">rlc</text>
</g>
<!-- dbf -->
<g id="node824" class="node">
<title>dbf</title>
<ellipse fill="none" stroke="black" cx="10" cy="0" rx="27" ry="18"/>
<text text-anchor="middle" x="10" y="3.7" font-family="Times,serif" font-size="14.00">dbf</text>
</g>
<!-- gmf -->
<g id="node519" class="node">
<title>gmf</title>
<ellipse fill="none" stroke="black" cx="21" cy="0" rx="28.7" ry="18"/>
<text text-anchor="middle" x="21" y="3.7" font-family="Times,serif" font-size="14.00">gmf</text>
</g>
<!-- hkd -->
<g id="node675" class="node">
<title>hkd</title>
<ellipse fill="none" stroke="black" cx="20" cy="0" rx="28" ry="18"/>
<text text-anchor="middle" x="20" y="3.7" font-family="Times,serif" font-size="14.00">hkd</text>
</g>
<!-- qnr -->
<g id="node547" class="node">
<title>qnr</title>
<ellipse fill="none" stroke="black" cx="10" cy="0" rx="27" ry="18"/>
<text text-anchor="middle" x="10" y="3.7" font-family="Times,serif" font-size="14.00">qnr</text>
</g>
<!-- pks -->
<g id="node831" class="node">
<title>pks</title>
<ellipse fill="none" stroke="black" cx="19" cy="0" rx="27" ry="18"/>
<text text-anchor="middle" x="19" y="3.7" font-family="Times,serif" font-size="14.00">pks</text>
</g>
<!-- fnj -->
<g id="node597" class="node">
<title>fnj</title>
<ellipse fill="none" stroke="black" cx="23" cy="0" rx="27" ry="18"/>
<text text-anchor="middle" x="23" y="3.7" font-family="Times,serif" font-size="14.00">fnj</text>
</g>
<!-- qxs -->
<g id="node1517" class="node">
<title>qxs</title>
<ellipse fill="none" stroke="black" cx="13" cy="0" rx="27" ry="18"/>
<text text-anchor="middle" x="13" y="3.7" font-family="Times,serif" font-size="14.00">qxs</text>
</g>
<!-- gkt -->
<g id="node821" class="node">
<title>gkt</title>
<ellipse fill="none" stroke="black" cx="9" cy="0" rx="27" ry="18"/>
<text text-anchor="middle" x="9" y="3.7" font-family="Times,serif" font-size="14.00">gkt</text>
</g>
<!-- szh -->
<g id="node1516" class="node">
<title>szh</title>
<ellipse fill="none" stroke="black" cx="19" cy="0" rx="27" ry="18"/>
<text text-anchor="middle" x="19" y="3.7" font-family="Times,serif" font-size="14.00">szh</text>
</g>
<!-- jpj -->
<g id="node1000" class="node">
<title>jpj</title>
<ellipse fill="none" stroke="black" cx="17" cy="0" rx="27" ry="18"/>
<text text-anchor="middle" x="17" y="3.7" font-family="Times,serif" font-size="14.00">jpj</text>
</g>
<!-- rqp -->
<g id="node708" class="node">
<title>rqp</title>
<ellipse fill="none" stroke="black" cx="18" cy="0" rx="27" ry="18"/>
<text text-anchor="middle" x="18" y="3.7" font-family="Times,serif" font-size="14.00">rqp</text>
</g>
<!-- ggx -->
<g id="node721" class="node">
<title>ggx</title>
<ellipse fill="none" stroke="black" cx="15" cy="0" rx="28" ry="18"/>
<text text-anchor="middle" x="15" y="3.7" font-family="Times,serif" font-size="14.00">ggx</text>
</g>
<!-- dpp -->
<g id="node823" class="node">
<title>dpp</title>
<ellipse fill="none" stroke="black" cx="26" cy="0" rx="28.7" ry="18"/>
<text text-anchor="middle" x="26" y="3.7" font-family="Times,serif" font-size="14.00">dpp</text>
</g>
<!-- ldh -->
<g id="node1262" class="node">
<title>ldh</title>
<ellipse fill="none" stroke="black" cx="28" cy="0" rx="27" ry="18"/>
<text text-anchor="middle" x="28" y="3.7" font-family="Times,serif" font-size="14.00">ldh</text>
</g>
<!-- pbd -->
<g id="node1369" class="node">
<title>pbd</title>
<ellipse fill="none" stroke="black" cx="17" cy="0" rx="28.7" ry="18"/>
<text text-anchor="middle" x="17" y="3.7" font-family="Times,serif" font-size="14.00">pbd</text>
</g>
<!-- zjn -->
<g id="node1257" class="node">
<title>zjn</title>
<ellipse fill="none" stroke="black" cx="14" cy="0" rx="27" ry="18"/>
<text text-anchor="middle" x="14" y="3.7" font-family="Times,serif" font-size="14.00">zjn</text>
</g>
<!-- nvc -->
<g id="node1263" class="node">
<title>nvc</title>
<ellipse fill="none" stroke="black" cx="20" cy="0" rx="27" ry="18"/>
<text text-anchor="middle" x="20" y="3.7" font-family="Times,serif" font-size="14.00">nvc</text>
</g>
<!-- hpr -->
<g id="node850" class="node">
<title>hpr</title>
<ellipse fill="none" stroke="black" cx="4" cy="0" rx="27" ry="18"/>
<text text-anchor="middle" x="4" y="3.7" font-family="Times,serif" font-size="14.00">hpr</text>
</g>
<!-- sfl -->
<g id="node780" class="node">
<title>sfl</title>
<ellipse fill="none" stroke="black" cx="22" cy="0" rx="27" ry="18"/>
<text text-anchor="middle" x="22" y="3.7" font-family="Times,serif" font-size="14.00">sfl</text>
</g>
<!-- dfh -->
<g id="node1518" class="node">
<title>dfh</title>
<ellipse fill="none" stroke="black" cx="2" cy="0" rx="27" ry="18"/>
<text text-anchor="middle" x="2" y="3.7" font-family="Times,serif" font-size="14.00">dfh</text>
</g>
<!-- vrx -->
<g id="node964" class="node">
<title>vrx</title>
<ellipse fill="none" stroke="black" cx="31" cy="0" rx="27" ry="18"/>
<text text-anchor="middle" x="31" y="3.7" font-family="Times,serif" font-size="14.00">vrx</text>
</g>
<!-- zbk -->
<g id="node1012" class="node">
<title>zbk</title>
<ellipse fill="none" stroke="black" cx="0" cy="0" rx="27" ry="18"/>
<text text-anchor="middle" x="0" y="3.7" font-family="Times,serif" font-size="14.00">zbk</text>
</g>
<!-- dxp -->
<g id="node1445" class="node">
<title>dxp</title>
<ellipse fill="none" stroke="black" cx="15" cy="0" rx="28" ry="18"/>
<text text-anchor="middle" x="15" y="3.7" font-family="Times,serif" font-size="14.00">dxp</text>
</g>
<!-- kqd -->
<g id="node1086" class="node">
<title>kqd</title>
<ellipse fill="none" stroke="black" cx="30" cy="0" rx="28" ry="18"/>
<text text-anchor="middle" x="30" y="3.7" font-family="Times,serif" font-size="14.00">kqd</text>
</g>
</g>
</svg>
